<svg version="1.1" id="Layer_1" xmlns="http://www.w3.org/2000/svg" xmlns:xlink="http://www.w3.org/1999/xlink" x="0px" y="0px"
	 width="100%" viewBox="0 0 500 500" enable-background="new 0 0 500 500" xml:space="preserve">
<path fill="#FFA51D" opacity="1.000000" stroke="none" 
	d="
M288.000000,501.000000 
	C192.000015,501.000000 96.500046,501.000000 1.000051,501.000000 
	C1.000034,334.333405 1.000034,167.666794 1.000017,1.000141 
	C167.666565,1.000094 334.333130,1.000094 500.999756,1.000047 
	C500.999847,167.666519 500.999847,334.333038 500.999939,500.999786 
	C430.166656,501.000000 359.333344,501.000000 288.000000,501.000000 
M140.114090,84.607727 
	C76.823441,129.498474 46.714508,190.667084 52.034206,268.131104 
	C55.459629,318.011108 76.541977,360.514465 112.465279,395.077087 
	C175.414062,455.641479 268.283417,469.010925 344.927216,427.163849 
	C412.495239,390.272125 447.547943,331.758820 450.773499,254.915314 
	C452.338287,217.637024 443.011200,182.436234 423.662506,150.504471 
	C385.797943,88.015427 329.914276,54.655720 256.960327,51.256832 
	C214.827087,49.293865 176.013290,61.051769 140.114090,84.607727 
z"/>
<path fill="#FFFEFC" opacity="1.000000" stroke="none" 
	d="
M140.409912,84.399521 
	C176.013290,61.051769 214.827087,49.293865 256.960327,51.256832 
	C329.914276,54.655720 385.797943,88.015427 423.662506,150.504471 
	C443.011200,182.436234 452.338287,217.637024 450.773499,254.915314 
	C447.547943,331.758820 412.495239,390.272125 344.927216,427.163849 
	C268.283417,469.010925 175.414062,455.641479 112.465279,395.077087 
	C76.541977,360.514465 55.459629,318.011108 52.034206,268.131104 
	C46.714508,190.667084 76.823441,129.498474 140.409912,84.399521 
M105.211189,363.273224 
	C156.357315,428.654144 244.142288,452.491516 319.773376,421.535950 
	C414.063599,382.943329 459.037292,277.904572 421.929596,182.943863 
	C384.857971,88.075432 273.762817,41.045822 180.069931,81.525635 
	C118.533562,108.112289 81.194359,155.218628 69.803894,221.404358 
	C60.885296,273.226990 73.520309,320.452881 105.211189,363.273224 
z"/>
<path fill="#FFA61F" opacity="1.000000" stroke="none" 
	d="
M105.008621,362.981110 
	C73.520309,320.452881 60.885296,273.226990 69.803894,221.404358 
	C81.194359,155.218628 118.533562,108.112289 180.069931,81.525635 
	C273.762817,41.045822 384.857971,88.075432 421.929596,182.943863 
	C459.037292,277.904572 414.063599,382.943329 319.773376,421.535950 
	C244.142288,452.491516 156.357315,428.654144 105.008621,362.981110 
M285.891907,125.378426 
	C276.442444,128.878052 266.992950,132.377686 256.761414,136.166962 
	C256.161285,135.733002 254.566910,134.543732 252.936279,133.406418 
	C226.680450,115.093849 198.053452,110.568932 167.940460,120.946167 
	C134.231140,132.562714 112.988579,156.693695 106.400429,191.606339 
	C99.679337,227.223434 110.856575,257.739838 138.558548,281.569031 
	C141.743118,284.308380 141.870956,286.196594 140.742950,289.853760 
	C129.438171,326.506165 136.524628,359.529419 163.628906,386.522217 
	C203.401474,426.131104 267.014648,421.982971 302.371399,378.564148 
	C304.310272,376.183167 305.935760,375.856140 308.680084,376.430145 
	C318.413818,378.466095 328.205902,378.424408 337.952972,376.403717 
	C386.610992,366.316101 412.071777,313.531708 389.591217,269.188507 
	C388.234558,266.512482 388.201691,264.673523 389.718445,261.992767 
	C401.198853,241.701584 404.338745,219.778305 399.579926,197.251541 
	C388.593079,145.243027 338.945953,113.854179 285.891907,125.378426 
z"/>
<path fill="#FFFEFC" opacity="1.000000" stroke="none" 
	d="
M286.293030,125.267868 
	C338.945953,113.854179 388.593079,145.243027 399.579926,197.251541 
	C404.338745,219.778305 401.198853,241.701584 389.718445,261.992767 
	C388.201691,264.673523 388.234558,266.512482 389.591217,269.188507 
	C412.071777,313.531708 386.610992,366.316101 337.952972,376.403717 
	C328.205902,378.424408 318.413818,378.466095 308.680084,376.430145 
	C305.935760,375.856140 304.310272,376.183167 302.371399,378.564148 
	C267.014648,421.982971 203.401474,426.131104 163.628906,386.522217 
	C136.524628,359.529419 129.438171,326.506165 140.742950,289.853760 
	C141.870956,286.196594 141.743118,284.308380 138.558548,281.569031 
	C110.856575,257.739838 99.679337,227.223434 106.400429,191.606339 
	C112.988579,156.693695 134.231140,132.562714 167.940460,120.946167 
	C198.053452,110.568932 226.680450,115.093849 252.936279,133.406418 
	C254.566910,134.543732 256.161285,135.733002 256.761414,136.166962 
	C266.992950,132.377686 276.442444,128.878052 286.293030,125.267868 
M378.844940,283.846008 
	C378.596375,283.228638 378.340271,282.614197 378.100281,281.993500 
	C366.478394,251.932678 332.947754,237.075714 301.971283,248.262939 
	C273.003204,258.724854 257.199127,292.716156 267.473602,322.460510 
	C278.026398,353.010620 311.025421,369.074524 342.318237,358.894897 
	C372.430450,349.099335 388.804413,315.997681 378.844940,283.846008 
M230.344696,397.759125 
	C253.723816,396.640808 273.500031,388.118958 288.891205,369.785431 
	C284.389648,366.889526 280.378174,364.308868 276.420166,361.762604 
	C249.151108,389.960083 211.942001,386.432404 190.194199,369.055786 
	C167.132492,350.629303 159.715057,318.411224 173.271210,291.545105 
	C179.939606,278.329468 190.063293,268.427246 203.729401,262.475800 
	C222.434631,254.329865 240.964828,255.470093 259.065613,264.376556 
	C262.158020,260.168396 264.979370,256.329041 267.922974,252.323318 
	C252.228531,243.582779 235.817230,240.406189 218.169891,242.807510 
	C161.740662,250.485992 132.459579,318.086182 165.582458,364.345886 
	C181.271240,386.256927 202.840515,396.804565 230.344696,397.759125 
M235.576736,158.892288 
	C259.006256,177.683380 265.520325,201.790359 257.836456,230.528107 
	C262.319794,232.235718 266.716736,233.910416 271.098206,235.579224 
	C283.526215,204.715729 272.629303,160.274445 233.635635,140.103836 
	C197.579590,121.452782 151.905380,134.549393 131.533020,169.254257 
	C109.570732,206.667603 122.880394,249.923996 149.896637,269.826447 
	C152.712189,265.982727 155.526093,262.141266 158.322311,258.323944 
	C127.018410,231.686905 131.474152,188.445267 152.202072,166.559418 
	C173.751556,143.806122 208.892731,139.935562 235.576736,158.892288 
M200.227707,331.040527 
	C196.001266,317.916718 198.141861,306.122803 208.703308,296.933350 
	C221.317245,285.958130 234.918594,286.438629 248.526154,295.356201 
	C249.743317,289.725861 250.896423,284.391937 252.032532,279.136536 
	C231.666382,266.486237 203.344910,273.653168 189.651642,294.755432 
	C175.865280,316.001160 181.985672,344.401123 203.507751,359.051086 
	C222.686523,372.105957 252.036713,367.743195 264.565216,349.959259 
	C261.714417,345.540314 258.862335,341.119324 255.896637,336.522278 
	C253.743149,338.884949 252.008911,341.114899 249.952454,342.991791 
	C234.442337,357.147705 209.242264,352.265472 200.227707,331.040527 
M167.155151,209.544373 
	C167.351730,207.891464 167.522400,206.235001 167.748871,204.586197 
	C169.917542,188.797928 183.602356,177.656769 199.706161,178.559158 
	C216.241104,179.485703 228.982941,191.988876 228.885056,208.003265 
	C228.848694,213.953522 227.103165,219.893341 226.135284,225.848816 
	C230.820923,226.095520 236.251526,226.381454 241.619431,226.664078 
	C250.903503,205.293854 240.883286,178.304886 219.813370,167.582291 
	C197.176437,156.062225 169.639023,164.471695 157.150040,186.718628 
	C145.752533,207.021271 151.996414,235.001175 170.535126,246.709656 
	C175.085617,243.658325 179.636124,240.606995 184.204483,237.543686 
	C171.654968,228.276077 168.812347,223.726807 167.155151,209.544373 
M385.263977,209.296341 
	C381.772156,179.619019 366.574890,158.045685 339.559784,145.507523 
	C316.182098,134.657562 292.898132,136.322189 269.844635,148.484482 
	C272.950623,152.777298 275.741241,156.634247 278.531036,160.490021 
	C279.617401,160.085419 280.415161,159.847015 281.163208,159.501205 
	C308.752808,146.747787 340.924164,154.923187 358.659058,179.554855 
	C371.440796,197.307114 373.471954,216.817291 367.077850,237.496490 
	C366.582092,239.099686 366.396606,241.724152 367.311279,242.667786 
	C370.268463,245.718567 373.806549,248.206253 377.390686,251.131119 
	C383.865936,237.919418 386.602448,224.452744 385.263977,209.296341 
M326.679688,191.731262 
	C338.869049,201.867355 341.392975,214.719910 336.658844,229.328445 
	C341.980957,230.838303 346.694061,232.175385 351.352936,233.497101 
	C359.094025,214.770004 353.381073,193.282364 337.374634,179.936890 
	C323.247009,168.157898 299.998993,166.039780 285.821930,175.433105 
	C287.298584,180.331070 288.799408,185.309372 290.310516,190.321655 
	C307.170105,183.565048 313.299377,183.759109 326.679688,191.731262 
M213.030746,206.930237 
	C210.304520,195.429993 198.437134,190.405014 189.603027,197.010269 
	C183.552170,201.534485 181.449173,209.167206 184.462708,215.666779 
	C187.398743,221.999161 194.564301,225.527466 201.491379,224.051651 
	C208.900497,222.473145 213.251266,216.378494 213.030746,206.930237 
M234.952103,333.791656 
	C239.736404,331.552643 243.123749,328.116058 244.005585,322.736755 
	C245.201508,315.441650 241.701645,308.864807 235.231125,305.965637 
	C229.354370,303.332550 222.429184,304.908447 217.990417,309.889008 
	C213.604874,314.809845 212.823074,322.097015 216.107010,327.444275 
	C219.936340,333.679565 226.764420,336.162354 234.952103,333.791656 
M322.949524,215.707474 
	C321.159576,203.709412 309.904510,197.462708 300.436096,203.212265 
	C293.979279,207.133072 291.107635,215.081024 293.742310,221.738861 
	C296.548767,228.830811 301.329041,231.130310 310.027954,229.572845 
	C319.566284,227.865128 322.217529,225.197510 322.949524,215.707474 
z"/>
<path fill="#FFA51E" opacity="1.000000" stroke="none" 
	d="
M378.953918,284.228943 
	C388.804413,315.997681 372.430450,349.099335 342.318237,358.894897 
	C311.025421,369.074524 278.026398,353.010620 267.473602,322.460510 
	C257.199127,292.716156 273.003204,258.724854 301.971283,248.262939 
	C332.947754,237.075714 366.478394,251.932678 378.100281,281.993500 
	C378.340271,282.614197 378.596375,283.228638 378.953918,284.228943 
z"/>
<path fill="#FFA721" opacity="1.000000" stroke="none" 
	d="
M229.897217,397.778198 
	C202.840515,396.804565 181.271240,386.256927 165.582458,364.345886 
	C132.459579,318.086182 161.740662,250.485992 218.169891,242.807510 
	C235.817230,240.406189 252.228531,243.582779 267.922974,252.323318 
	C264.979370,256.329041 262.158020,260.168396 259.065613,264.376556 
	C240.964828,255.470093 222.434631,254.329865 203.729401,262.475800 
	C190.063293,268.427246 179.939606,278.329468 173.271210,291.545105 
	C159.715057,318.411224 167.132492,350.629303 190.194199,369.055786 
	C211.942001,386.432404 249.151108,389.960083 276.420166,361.762604 
	C280.378174,364.308868 284.389648,366.889526 288.891205,369.785431 
	C273.500031,388.118958 253.723816,396.640808 229.897217,397.778198 
z"/>
<path fill="#FFA721" opacity="1.000000" stroke="none" 
	d="
M235.296631,158.670135 
	C208.892731,139.935562 173.751556,143.806122 152.202072,166.559418 
	C131.474152,188.445267 127.018410,231.686905 158.322311,258.323944 
	C155.526093,262.141266 152.712189,265.982727 149.896637,269.826447 
	C122.880394,249.923996 109.570732,206.667603 131.533020,169.254257 
	C151.905380,134.549393 197.579590,121.452782 233.635635,140.103836 
	C272.629303,160.274445 283.526215,204.715729 271.098206,235.579224 
	C266.716736,233.910416 262.319794,232.235718 257.836456,230.528107 
	C265.520325,201.790359 259.006256,177.683380 235.296631,158.670135 
z"/>
<path fill="#FFA621" opacity="1.000000" stroke="none" 
	d="
M200.389984,331.394745 
	C209.242264,352.265472 234.442337,357.147705 249.952454,342.991791 
	C252.008911,341.114899 253.743149,338.884949 255.896637,336.522278 
	C258.862335,341.119324 261.714417,345.540314 264.565216,349.959259 
	C252.036713,367.743195 222.686523,372.105957 203.507751,359.051086 
	C181.985672,344.401123 175.865280,316.001160 189.651642,294.755432 
	C203.344910,273.653168 231.666382,266.486237 252.032532,279.136536 
	C250.896423,284.391937 249.743317,289.725861 248.526154,295.356201 
	C234.918594,286.438629 221.317245,285.958130 208.703308,296.933350 
	C198.141861,306.122803 196.001266,317.916718 200.389984,331.394745 
z"/>
<path fill="#FFA721" opacity="1.000000" stroke="none" 
	d="
M167.183716,209.970139 
	C168.812347,223.726807 171.654968,228.276077 184.204483,237.543686 
	C179.636124,240.606995 175.085617,243.658325 170.536987,246.712936 
	C151.996414,235.001175 145.752533,207.021271 157.150040,186.718628 
	C169.639023,164.471695 197.176437,156.062225 219.813370,167.582291 
	C240.883286,178.304886 250.903503,205.293854 241.619431,226.664078 
	C236.251526,226.381454 230.820923,226.095520 226.135284,225.848816 
	C227.103165,219.893341 228.848694,213.953522 228.885056,208.003265 
	C228.982941,191.988876 216.241104,179.485703 199.706161,178.559158 
	C183.602356,177.656769 169.917542,188.797928 167.748871,204.586197 
	C167.522400,206.235001 167.351730,207.891464 167.183716,209.970139 
z"/>
<path fill="#FFA721" opacity="1.000000" stroke="none" 
	d="
M385.299194,209.745087 
	C386.602448,224.452744 383.865936,237.919418 377.390686,251.131119 
	C373.806549,248.206253 370.268463,245.718567 367.311279,242.667786 
	C366.396606,241.724152 366.582092,239.099686 367.077850,237.496490 
	C373.471954,216.817291 371.440796,197.307114 358.659058,179.554855 
	C340.924164,154.923187 308.752808,146.747787 281.163208,159.501205 
	C280.415161,159.847015 279.617401,160.085419 278.531036,160.490021 
	C275.741241,156.634247 272.950623,152.777298 269.844635,148.484482 
	C292.898132,136.322189 316.182098,134.657562 339.559784,145.507523 
	C366.574890,158.045685 381.772156,179.619019 385.299194,209.745087 
z"/>
<path fill="#FFA721" opacity="1.000000" stroke="none" 
	d="
M326.400665,191.500580 
	C313.299377,183.759109 307.170105,183.565048 290.310516,190.321655 
	C288.799408,185.309372 287.298584,180.331070 285.821930,175.433105 
	C299.998993,166.039780 323.247009,168.157898 337.374634,179.936890 
	C353.381073,193.282364 359.094025,214.770004 351.352936,233.497101 
	C346.694061,232.175385 341.980957,230.838303 336.658844,229.328445 
	C341.392975,214.719910 338.869049,201.867355 326.400665,191.500580 
z"/>
<path fill="#FFA621" opacity="1.000000" stroke="none" 
	d="
M213.066635,207.358368 
	C213.251266,216.378494 208.900497,222.473145 201.491379,224.051651 
	C194.564301,225.527466 187.398743,221.999161 184.462708,215.666779 
	C181.449173,209.167206 183.552170,201.534485 189.603027,197.010269 
	C198.437134,190.405014 210.304520,195.429993 213.066635,207.358368 
z"/>
<path fill="#FFA620" opacity="1.000000" stroke="none" 
	d="
M234.577194,333.907837 
	C226.764420,336.162354 219.936340,333.679565 216.107010,327.444275 
	C212.823074,322.097015 213.604874,314.809845 217.990417,309.889008 
	C222.429184,304.908447 229.354370,303.332550 235.231125,305.965637 
	C241.701645,308.864807 245.201508,315.441650 244.005585,322.736755 
	C243.123749,328.116058 239.736404,331.552643 234.577194,333.907837 
z"/>
<path fill="#FFA620" opacity="1.000000" stroke="none" 
	d="
M322.966064,216.122833 
	C322.217529,225.197510 319.566284,227.865128 310.027954,229.572845 
	C301.329041,231.130310 296.548767,228.830811 293.742310,221.738861 
	C291.107635,215.081024 293.979279,207.133072 300.436096,203.212265 
	C309.904510,197.462708 321.159576,203.709412 322.966064,216.122833 
z"/>
</svg>